<?xml version="1.0" standalone="no"?>
<!DOCTYPE svg PUBLIC "-//W3C//DTD SVG 20010904//EN"
 "http://www.w3.org/TR/2001/REC-SVG-20010904/DTD/svg10.dtd">
<svg version="1.0" xmlns="http://www.w3.org/2000/svg"
 width="500.000000pt" height="500.000000pt" viewBox="0 0 500.000000 500.000000"
 preserveAspectRatio="xMidYMid meet">
<metadata>
Created by potrace 1.14, written by Peter Selinger 2001-2017
</metadata>
<g transform="translate(0.000000,500.000000) scale(0.100000,-0.100000)"
fill="#000000" stroke="none">
<path d="M4337 4684 c-1 -1 -31 -4 -67 -8 -114 -12 -146 -22 -192 -59 -41 -34
-51 -37 -106 -37 -92 0 -182 -40 -182 -81 0 -10 9 -34 21 -54 23 -38 24 -35
-31 -100 -15 -18 -33 -62 -45 -110 -17 -70 -25 -86 -67 -128 -87 -88 -93 -109
-56 -186 21 -43 21 -45 3 -75 -10 -17 -40 -73 -67 -124 -47 -89 -49 -94 -34
-117 9 -13 28 -30 43 -37 25 -12 28 -18 26 -58 -2 -42 -11 -120 -18 -164 -4
-19 29 -59 55 -68 12 -4 11 -11 -5 -44 -24 -50 -31 -135 -15 -174 19 -46 84
-100 123 -101 17 -1 35 -1 39 0 4 0 51 4 104 7 l96 7 -36 -72 c-20 -39 -54
-89 -76 -111 -38 -38 -43 -40 -103 -40 -109 0 -192 35 -326 137 -60 46 -245
135 -359 173 -83 28 -106 31 -215 31 -123 1 -311 -28 -447 -67 -91 -27 -93
-26 -177 41 -96 76 -150 107 -232 135 -75 25 -188 26 -295 3 -56 -13 -70 -13
-76 -2 -9 13 -6 103 4 136 19 68 21 125 14 395 l-2 87 57 113 c109 217 137
258 178 258 24 0 86 -31 114 -57 49 -46 94 -73 121 -73 42 0 56 -13 49 -42 -5
-21 1 -32 42 -68 58 -51 103 -75 180 -96 112 -30 190 -12 271 60 66 60 73 83
74 273 2 159 1 171 -21 213 -29 55 -38 61 -78 54 -25 -5 -32 -2 -38 14 -3 12
-22 35 -41 51 -32 29 -39 31 -87 25 -29 -3 -54 -6 -57 -7 -6 0 -23 6 -141 53
-52 22 -107 41 -122 44 -15 4 -39 9 -55 12 -124 25 -385 26 -472 0 -31 -9 -73
-30 -94 -48 -38 -31 -96 -135 -96 -172 0 -10 -40 -60 -88 -110 -49 -50 -127
-136 -174 -191 -47 -55 -110 -125 -138 -155 -184 -192 -393 -464 -458 -595
-47 -94 -110 -293 -117 -367 -3 -42 -17 -92 -35 -134 -17 -36 -30 -83 -30
-104 0 -67 14 -87 85 -120 58 -27 68 -36 85 -75 22 -51 63 -81 185 -133 172
-74 226 -103 400 -219 202 -135 335 -205 475 -251 278 -92 472 -111 678 -68
62 13 114 21 116 17 10 -17 24 -153 31 -295 9 -174 25 -266 81 -461 79 -277
157 -397 437 -676 46 -46 94 -105 107 -131 l24 -48 80 -1 c438 -3 1363 -3
1406 -1 l56 4 -1 2178 c0 1198 -3 2181 -6 2184 -5 5 -276 14 -282 10z"/>
</g>
</svg>
